<svg width="70" height="70" viewBox="0 0 70 70" fill="none" xmlns="http://www.w3.org/2000/svg">
<path d="M2.90021 28.879C1.4694 29.1111 0.362578 30.2582 0.18187 31.6965C-0.0583826 33.8749 -0.0608012 36.073 0.174845 38.252C0.339083 39.7125 1.4527 40.8866 2.90251 41.1278L6.6148 41.7356C7.3275 44.7712 8.5306 47.6704 10.1766 50.3187L7.99148 53.3707C7.12076 54.5512 7.14184 56.1669 8.04284 57.3245C8.73826 58.1753 9.47826 58.9889 10.2595 59.7617C10.9759 60.4792 11.7679 61.2002 12.7188 61.9993C13.8672 62.8824 15.4607 62.9009 16.6294 62.0448L19.6965 59.8445C22.3422 61.4902 25.2384 62.6937 28.2714 63.4074L28.8805 67.1256C29.112 68.5568 30.2593 69.6642 31.698 69.8451C32.363 69.9197 33.0385 69.9722 33.7186 70.0002H33.8177C34.4258 69.9997 35.0105 69.7658 35.451 69.3468C35.9091 68.9091 36.1675 68.3028 36.1661 67.6692V58.3196C36.1592 57.0703 35.1731 56.0462 33.925 55.9921C22.7585 55.4091 14.0034 46.1851 14.0034 35.0034C14.0034 23.8217 22.7585 14.5977 33.925 14.0147C35.1751 13.9599 36.1618 12.9327 36.1661 11.6814V2.33649C36.168 1.70223 35.909 1.09526 35.4498 0.657718C34.9914 0.207964 34.3656 -0.0294097 33.7242 0.00318451C33.0453 0.0300201 32.3721 0.078969 31.6814 0.148995C30.2436 0.33431 29.1018 1.4485 28.8814 2.88127L28.2736 6.59586C25.2406 7.31017 22.3443 8.51397 19.6987 10.16L16.6316 7.96436C15.4521 7.10182 13.8431 7.1275 12.6918 8.02736C11.846 8.71978 11.0364 9.45529 10.2664 10.2312C9.47273 11.007 8.72559 11.829 8.02879 12.6928C7.13861 13.8427 7.11581 15.4426 7.97282 16.6175L10.1719 19.6881C8.52738 22.3362 7.32588 25.235 6.6148 28.2701L2.90021 28.879ZM8.72536 29.53C9.40362 26.2349 10.7049 23.0996 12.559 20.2925C12.8248 19.8888 12.814 19.3631 12.5322 18.9706L9.87111 15.2549C9.6251 14.9302 9.61796 14.4836 9.85361 14.1512C10.4931 13.3586 11.1791 12.6048 11.9081 11.8936C12.6162 11.1784 13.3599 10.4992 14.1364 9.85897C14.4706 9.60421 14.9338 9.60421 15.2681 9.85897L18.978 12.5213C19.371 12.8025 19.8967 12.8121 20.2999 12.5459C23.1046 10.691 26.2381 9.38929 29.5317 8.71103C30.0051 8.61348 30.3694 8.23387 30.4475 7.7567L31.1813 3.26388C31.2341 2.86088 31.5435 2.53955 31.9443 2.47171C32.5614 2.40756 33.1868 2.36206 33.8332 2.33638L33.8075 11.6824C21.3868 12.3168 11.6434 22.5761 11.6503 35.0131C11.6571 47.45 21.4118 57.6987 33.8332 58.3194L33.8168 67.669C33.1903 67.6433 32.5697 67.5943 31.9572 67.5255C31.5546 67.4666 31.239 67.1492 31.1826 66.7461L30.4475 62.2509C30.3694 61.7738 30.0053 61.3943 29.5317 61.2966C26.2381 60.6178 23.1046 59.3158 20.2999 57.4606C19.8964 57.1946 19.3709 57.2048 18.978 57.4863L15.2646 60.151C14.9479 60.3972 14.5079 60.4091 14.1784 60.1801C13.3209 59.458 12.5777 58.7802 11.9081 58.1116C11.1927 57.4048 10.514 56.6619 9.87457 55.8856C9.62292 55.5495 9.62292 55.0878 9.87457 54.7516L12.5334 51.0393C12.8148 50.6466 12.8251 50.1209 12.559 49.7175C10.7047 46.9109 9.40351 43.7759 8.72536 40.4811C8.62793 40.008 8.24889 39.6438 7.77218 39.5652L3.28051 38.829C2.86243 38.7599 2.54144 38.4209 2.49537 37.9995C2.27689 35.9929 2.27919 33.9682 2.5024 31.9621C2.56044 31.5591 2.8774 31.2426 3.28051 31.1852L7.77092 30.4501C8.24946 30.3718 8.62942 30.0054 8.72536 29.53Z" fill="#E69A37"/>
<path d="M66.4994 31.5026C65.0215 31.5087 63.7068 32.4426 63.2141 33.8359H36.1664V30.3359H54.8329C56.7658 30.3359 58.3328 28.769 58.3328 26.836V20.7881C59.9399 20.2199 60.9039 18.5765 60.6156 16.8965C60.3273 15.2164 58.8706 13.9883 57.166 13.9883C55.4615 13.9883 54.0047 15.2164 53.7165 16.8965C53.4282 18.5765 54.3922 20.2199 55.9993 20.7881V26.836C55.9993 27.4803 55.477 28.0027 54.8326 28.0027H36.1664V24.5027H48.9995C49.6438 24.5027 50.1661 23.9804 50.1661 23.336C50.1661 22.6916 49.6438 22.1693 48.9995 22.1693H36.1664V19.836H43.1663C45.0993 19.836 46.6663 18.269 46.6663 16.3359V9.12155C48.2735 8.5534 49.2375 6.90998 48.9492 5.22994C48.6609 3.54989 47.2042 2.32179 45.4996 2.32179C43.795 2.32179 42.3383 3.54989 42.05 5.22994C41.7617 6.90998 42.7257 8.5534 44.3329 9.12155V16.3362C44.3329 16.9804 43.8106 17.5029 43.1662 17.5029H35.8583C35.4569 16.7569 34.6558 16.3151 33.8108 16.3736C23.9794 16.9963 16.3243 25.1517 16.3243 35.0028C16.3243 44.8538 23.9794 53.0092 33.8108 53.6319H33.9473C34.7443 53.6386 35.4797 53.2039 35.8583 52.5026H43.1662C43.8105 52.5026 44.3329 53.025 44.3329 53.6694V60.884C42.7257 61.4521 41.7617 63.0955 42.05 64.7756C42.3383 66.4556 43.795 67.6837 45.4996 67.6837C47.2042 67.6837 48.6609 66.4556 48.9492 64.7756C49.2375 63.0955 48.2735 61.4521 46.6663 60.884V53.6694C46.6663 51.7364 45.0994 50.1693 43.1663 50.1693H36.1664V47.836H48.9995C49.6438 47.836 50.1661 47.3137 50.1661 46.6694C50.1661 46.0251 49.6438 45.5027 48.9995 45.5027H36.1664V42.0028H54.8329C55.4771 42.0028 55.9996 42.5251 55.9996 43.1694V49.2173C54.3924 49.7855 53.4284 51.4289 53.7167 53.1089C54.005 54.789 55.4617 56.0171 57.1663 56.0171C58.8709 56.0171 60.3276 54.789 60.6159 53.1089C60.9041 51.4289 59.9401 49.7855 58.333 49.2173V43.1694C58.333 41.2364 56.766 39.6695 54.8331 39.6695H36.1664V36.1692H63.2141C63.8102 37.843 65.5674 38.8027 67.2979 38.3998C69.0283 37.9969 70.181 36.3597 69.9766 34.5948C69.7722 32.8301 68.276 31.4995 66.4994 31.5026ZM57.1662 16.3362C57.8104 16.3362 58.3328 16.8585 58.3328 17.5029C58.3328 18.1473 57.8104 18.6696 57.1662 18.6696C56.5219 18.6696 55.9996 18.1473 55.9996 17.5029C55.9996 16.8585 56.5218 16.3362 57.1662 16.3362ZM45.4996 4.66961C46.1439 4.66961 46.6663 5.19193 46.6663 5.83633C46.6663 6.48073 46.144 7.00292 45.4996 7.00292C44.8552 7.00292 44.333 6.48061 44.333 5.83633C44.333 5.19204 44.8552 4.66961 45.4996 4.66961ZM45.4996 65.3357C44.8553 65.3357 44.333 64.8134 44.333 64.169C44.333 63.5246 44.8553 63.0023 45.4996 63.0023C46.1439 63.0023 46.6663 63.5246 46.6663 64.169C46.6663 64.8134 46.1439 65.3357 45.4996 65.3357ZM57.1662 53.6691C56.5219 53.6691 55.9996 53.1468 55.9996 52.5024C55.9996 51.858 56.5219 51.3358 57.1662 51.3358C57.8104 51.3358 58.3328 51.8581 58.3328 52.5024C58.3328 53.1467 57.8104 53.6691 57.1662 53.6691ZM18.6665 35.0026C18.6763 26.4387 25.2916 19.3329 33.833 18.7115V51.2939C25.2916 50.6724 18.6763 43.5665 18.6665 35.0026ZM66.4994 36.1692C65.8551 36.1692 65.3327 35.6469 65.3327 35.0025C65.3327 34.3581 65.855 33.8359 66.4994 33.8359C67.1438 33.8359 67.6661 34.3582 67.6661 35.0025C67.6661 35.6468 67.1437 36.1692 66.4994 36.1692Z" fill="#E69A37"/>
</svg>
